<?xml version="1.0" encoding="utf-8"?>
<!-- Generator: Adobe Illustrator 22.0.1, SVG Export Plug-In . SVG Version: 6.00 Build 0)  -->
<svg version="1.1" id="Capa_1" xmlns="http://www.w3.org/2000/svg" xmlns:xlink="http://www.w3.org/1999/xlink" x="0px" y="0px"
	 viewBox="0 0 388.8 388.8" style="enable-background:new 0 0 388.8 388.8;" xml:space="preserve">
<path d="M368.8,175.9V80.1c0-13.1-10.7-23.8-23.8-23.8H43.9c-13.1,0-23.8,10.7-23.8,23.8v95.8C8.7,177.6,0,187.5,0,199.3v59.3
	c0,4.1,3.4,7.5,7.5,7.5h8v37c0,4.1,3.4,7.5,7.5,7.5h13.5V325c0,4.1,3.4,7.5,7.5,7.5s7.5-3.4,7.5-7.5v-14.4h285.7V325
	c0,4.1,3.4,7.5,7.5,7.5s7.5-3.4,7.5-7.5v-14.4h13.5c4.1,0,7.5-3.4,7.5-7.5v-37h8c4.1,0,7.5-3.4,7.5-7.5v-59.3
	C388.8,187.5,380.1,177.6,368.8,175.9z M35.1,80.1c0-4.9,4-8.8,8.8-8.8h301.1c4.9,0,8.8,4,8.8,8.8v95.6h-26.3
	c5.2-5.6,10.6-11.6,16.1-17.9c2.5-2.8,2.5-7,0-9.8c-21.7-24.9-39.9-43.1-64.8-64.8c-2.8-2.5-7-2.5-9.8,0
	c-24.9,21.7-43.1,39.9-64.8,64.8c-2.5,2.8-2.5,7,0,9.8c5.5,6.3,10.9,12.3,16.1,17.9h-51.5c5.2-5.6,10.6-11.6,16.1-17.9
	c2.5-2.8,2.5-7,0-9.8c-21.7-24.9-39.9-43.1-64.8-64.8c-2.8-2.5-7-2.5-9.8,0C85.2,104.8,67,123,45.3,147.9c-2.5,2.8-2.5,7,0,9.8
	c5.5,6.3,10.9,12.3,16.1,17.9H35.1V80.1z M240.9,175.7c-6.9-7.1-13.9-14.6-21.1-22.8c17.9-20.3,33.8-36.2,54.1-54.1
	c20.3,17.9,36.2,33.8,54.1,54.1c-7.3,8.2-14.2,15.8-21.1,22.8H240.9z M82.1,175.7c-6.9-7.1-13.9-14.6-21.2-22.8
	c17.9-20.3,33.8-36.2,54.1-54.1c20.3,17.9,36.2,33.8,54.1,54.1c-7.3,8.2-14.2,15.8-21.2,22.8H82.1z M358.3,295.6H30.5v-29.5h327.8
	V295.6z M373.8,251.1H15v-51.8c0-4.8,3.9-8.6,8.6-8.6h341.5c4.8,0,8.6,3.9,8.6,8.6L373.8,251.1L373.8,251.1z"/>
</svg>
