<?xml version="1.0" encoding="utf-8"?>
<!-- Generator: Adobe Illustrator 22.0.1, SVG Export Plug-In . SVG Version: 6.00 Build 0)  -->
<svg version="1.1" id="Layer_1" xmlns="http://www.w3.org/2000/svg" xmlns:xlink="http://www.w3.org/1999/xlink" x="0px" y="0px"
	 viewBox="0 0 485 485" style="enable-background:new 0 0 485 485;" xml:space="preserve">
<style type="text/css">
	.st0{fill:#1D2A57;}
</style>
<g>
	<path class="st0" d="M414,71C368.2,25.2,307.3,0,242.5,0S116.8,25.2,71,71C25.2,116.8,0,177.7,0,242.5S25.2,368.2,71,414
		c45.8,45.8,106.7,71,171.5,71s125.7-25.2,171.5-71c45.8-45.8,71-106.7,71-171.5S459.8,116.8,414,71z M242.5,455
		C125.3,455,30,359.7,30,242.5S125.3,30,242.5,30S455,125.3,455,242.5S359.7,455,242.5,455z"/>
	<polygon class="st0" points="242.5,299.8 135.6,193.2 114.4,214.5 242.5,342.1 370.6,214.5 349.4,193.2 	"/>
</g>
</svg>
