<?xml version="1.0" encoding="utf-8"?>
<!-- Generator: Adobe Illustrator 23.0.2, SVG Export Plug-In . SVG Version: 6.00 Build 0)  -->
<!DOCTYPE svg PUBLIC "-//W3C//DTD SVG 1.1//EN" "http://www.w3.org/Graphics/SVG/1.1/DTD/svg11.dtd" [
	<!ENTITY ns_extend "http://ns.adobe.com/Extensibility/1.0/">
	<!ENTITY ns_ai "http://ns.adobe.com/AdobeIllustrator/10.0/">
	<!ENTITY ns_graphs "http://ns.adobe.com/Graphs/1.0/">
	<!ENTITY ns_vars "http://ns.adobe.com/Variables/1.0/">
	<!ENTITY ns_imrep "http://ns.adobe.com/ImageReplacement/1.0/">
	<!ENTITY ns_sfw "http://ns.adobe.com/SaveForWeb/1.0/">
	<!ENTITY ns_custom "http://ns.adobe.com/GenericCustomNamespace/1.0/">
	<!ENTITY ns_adobe_xpath "http://ns.adobe.com/XPath/1.0/">
]>
<svg version="1.1" id="圖層_1" xmlns:x="&ns_extend;" xmlns:i="&ns_ai;" xmlns:graph="&ns_graphs;"
	 xmlns="http://www.w3.org/2000/svg" xmlns:xlink="http://www.w3.org/1999/xlink" x="0px" y="0px" viewBox="0 0 16 16"
	 style="enable-background:new 0 0 16 16;" xml:space="preserve">
<style type="text/css">
	.st0{fill:#6666FF;}
	.st1{display:none;}
	.st2{display:inline;}
</style>
<metadata>
	<sfw  xmlns="&ns_sfw;">
		<slices></slices>
		<sliceSourceBounds  bottomLeftOrigin="true" height="16" width="15.9" x="0" y="0"></sliceSourceBounds>
	</sfw>
</metadata>
<g>
	<path class="st0" d="M13.3,14c0.5-0.4,0.5-1.2-0.1-1.7c-0.4-0.3-1-0.3-1.4,0c-2.2,1.9-5.6,2-7.8-0.1c-2.1-2-2.5-5.2-0.8-7.6
		c2-2.7,5.8-3.2,8.4-1.1l-1.4,1.7c-0.1,0.1,0,0.2,0.1,0.2l5.5,0.3c0.1,0,0.1,0,0.1-0.2s-1.4-5.3-1.4-5.3c0-0.1-0.2-0.2-0.3-0.1
		L13,1.7c-3.7-2.9-9.1-2.1-11.7,2c-2,3.1-1.6,7.2,1,9.9C5.4,16.7,10.2,16.7,13.3,14z"/>
</g>
<g class="st1">
	<g class="st2">
		<path d="M15.2,2.8c-0.1-0.1-0.1-0.1-0.2-0.1h-3.2L11.1,1c-0.1-0.3-0.3-0.5-0.6-0.7S9.9,0,9.7,0H6.3C6.1,0,5.8,0.1,5.5,0.3
			S5.1,0.7,4.9,0.9L4.2,2.7H1c-0.1,0-0.2,0-0.2,0.1C0.7,2.8,0.7,2.9,0.7,3v0.7c0,0.1,0,0.2,0.1,0.2C0.8,4,0.9,4,1,4h1v9.9
			c0,0.6,0.2,1.1,0.5,1.5C2.8,15.8,3.2,16,3.7,16h8.7c0.5,0,0.9-0.2,1.2-0.6c0.3-0.4,0.5-0.9,0.5-1.5V4h1c0.1,0,0.2,0,0.2-0.1
			c0.1-0.1,0.1-0.1,0.1-0.2V3C15.3,2.9,15.3,2.8,15.2,2.8z M6.2,1.4c0-0.1,0.1-0.1,0.2-0.1h3.3c0.1,0,0.1,0.1,0.2,0.1l0.5,1.2H5.7
			L6.2,1.4z M12.7,13.9c0,0.2,0,0.3-0.1,0.4c0,0.1-0.1,0.2-0.2,0.3c-0.1,0.1-0.1,0.1-0.1,0.1H3.7c0,0-0.1,0-0.1-0.1
			c-0.1-0.1-0.1-0.2-0.2-0.3c0-0.1-0.1-0.3-0.1-0.4V4h9.3L12.7,13.9L12.7,13.9z"/>
		<path d="M5,12h0.7c0.1,0,0.2,0,0.2-0.1C6,11.9,6,11.8,6,11.7V6.9c0-0.1,0-0.1-0.1-0.2c-0.1,0-0.1,0-0.2,0H5c-0.1,0-0.2,0-0.2,0.1
			c-0.1,0-0.1,0-0.1,0.1v4.8c0,0.1,0,0.1,0.1,0.2C4.8,12,4.9,12,5,12z"/>
		<path d="M7.7,12.7h0.7c0.1,0,0.2,0,0.2-0.1c0.1-0.1,0.1-0.1,0.1-0.2v-6c0-0.1,0-0.2-0.1-0.2C8.5,6,8.4,6,8.3,6H7.7
			C7.6,6,7.5,6,7.4,6.1c0,0.1-0.1,0.1-0.1,0.2v6c0,0.1,0,0.2,0.1,0.2C7.5,12.6,7.6,12.7,7.7,12.7z"/>
		<path d="M10.3,12H11c0.1,0,0.2,0,0.2-0.1c0.1-0.1,0.1-0.1,0.1-0.2V6.9c0-0.1,0-0.1-0.1-0.2S11.1,6.6,11,6.6h-0.7
			c-0.1,0-0.2,0-0.2,0.1C10,6.8,10,6.8,10,6.9v4.8c0,0.1,0,0.1,0.1,0.2C10.2,12,10.2,12,10.3,12z"/>
	</g>
</g>
</svg>
